<?xml version="1.0" encoding="UTF-8"?>
<!DOCTYPE svg PUBLIC "-//W3C//DTD SVG 1.1//EN" "http://www.w3.org/Graphics/SVG/1.1/DTD/svg11.dtd">
<svg xmlns="http://www.w3.org/2000/svg" version="1.1" width="500px" height="500px" style="shape-rendering:geometricPrecision; text-rendering:geometricPrecision; image-rendering:optimizeQuality; fill-rule:evenodd; clip-rule:evenodd" xmlns:xlink="http://www.w3.org/1999/xlink">
<g><path style="opacity:0.106" fill="#fcfbfd" d="M 421.5,24.5 C 411.382,21.3762 401.049,19.2096 390.5,18C 295.833,17.3333 201.167,17.3333 106.5,18C 97.2793,19.3888 88.2793,21.5555 79.5,24.5C 81.9647,22.1633 84.9647,20.6633 88.5,20C 93.7608,18.6145 99.0941,17.6145 104.5,17C 202.5,16.3333 300.5,16.3333 398.5,17C 403.195,17.8723 407.861,18.8723 412.5,20C 416.035,20.6633 419.035,22.1633 421.5,24.5 Z"/></g>
<g><path style="opacity:1" fill="#8866cc" d="M 421.5,24.5 C 422.78,25.9313 424.447,26.5979 426.5,26.5C 427.492,26.3284 428.158,26.6618 428.5,27.5C 448.167,38.5 463.5,53.8333 474.5,73.5C 479.53,84.6178 482.53,96.2845 483.5,108.5C 483.5,206.167 483.5,303.833 483.5,401.5C 481.773,416.014 477.44,429.68 470.5,442.5C 468.75,443.659 467.75,445.326 467.5,447.5C 466.094,447.973 465.427,448.973 465.5,450.5C 465.5,451.167 465.167,451.5 464.5,451.5C 463.094,451.973 462.427,452.973 462.5,454.5C 457.833,458.5 453.5,462.833 449.5,467.5C 447.909,469.633 445.909,471.299 443.5,472.5C 441.973,472.427 440.973,473.094 440.5,474.5C 439.71,475.401 438.71,476.068 437.5,476.5C 425.637,483.067 412.97,487.567 399.5,490C 302.834,490.5 206.167,490.667 109.5,490.5C 92.4209,489.695 76.7542,484.695 62.5,475.5C 62.0269,474.094 61.0269,473.427 59.5,473.5C 59.0269,472.094 58.0269,471.427 56.5,471.5C 55.0892,469.086 53.0892,467.419 50.5,466.5C 49.5,466.167 48.8333,465.5 48.5,464.5C 30.8619,447.221 20.6953,426.221 18,401.5C 17.3333,303.167 17.3333,204.833 18,106.5C 18.9389,96.0776 21.4389,86.0776 25.5,76.5C 25.3284,75.5084 25.6618,74.8417 26.5,74.5C 37.1145,54.2188 52.4478,38.5522 72.5,27.5C 72.8417,26.6618 73.5084,26.3284 74.5,26.5C 76.5529,26.5979 78.2196,25.9313 79.5,24.5C 88.2793,21.5555 97.2793,19.3888 106.5,18C 201.167,17.3333 295.833,17.3333 390.5,18C 401.049,19.2096 411.382,21.3762 421.5,24.5 Z"/></g>
<g><path style="opacity:0.284" fill="#f2eef9" d="M 79.5,24.5 C 78.2196,25.9313 76.5529,26.5979 74.5,26.5C 75.7804,25.0687 77.4471,24.4021 79.5,24.5 Z"/></g>
<g><path style="opacity:0.753" fill="#ebe5f6" d="M 421.5,24.5 C 423.553,24.4021 425.22,25.0687 426.5,26.5C 424.447,26.5979 422.78,25.9313 421.5,24.5 Z"/></g>
<g><path style="opacity:0.133" fill="#f5f3fb" d="M 428.5,27.5 C 450.167,36.5 465.5,51.8333 474.5,73.5C 463.5,53.8333 448.167,38.5 428.5,27.5 Z"/></g>
<g><path style="opacity:1" fill="#f8f5fc" d="M 235.5,46.5 C 320.729,44.5194 385.562,79.5194 430,151.5C 459.626,207.194 464.292,264.861 444,324.5C 450.596,313.07 459.429,303.737 470.5,296.5C 472.167,296.833 473.167,297.833 473.5,299.5C 469.102,313.804 461.102,325.638 449.5,335C 443.77,338.062 438.603,341.896 434,346.5C 427.958,356.085 421.791,365.585 415.5,375C 425.612,371.375 435.779,367.542 446,363.5C 446.772,363.645 447.439,363.978 448,364.5C 448.667,366.167 448.667,367.833 448,369.5C 442.537,379.836 434.371,387.336 423.5,392C 415.017,394.45 406.35,395.783 397.5,396C 391.198,401.301 385.198,406.968 379.5,413C 394.083,411.007 408.75,409.673 423.5,409C 424.554,410.388 424.72,411.888 424,413.5C 413.235,425.704 399.568,431.37 383,430.5C 373.84,429.487 364.673,428.987 355.5,429C 299.725,460.456 241.392,466.122 180.5,446C 167.985,441.409 155.985,435.743 144.5,429C 136.015,428.984 127.515,429.151 119,429.5C 101.861,431.457 87.5276,426.123 76,413.5C 75.2797,411.888 75.4464,410.388 76.5,409C 91.9644,409.746 107.298,411.413 122.5,414C 115.833,408 109.167,402 102.5,396C 84.2388,397.251 69.0722,391.084 57,377.5C 54.6369,374.107 52.8035,370.44 51.5,366.5C 51.4342,364.734 52.2676,363.734 54,363.5C 63.2479,367.138 72.4145,370.972 81.5,375C 82.5,375.667 83.5,375.667 84.5,375C 78.8748,366.251 73.3748,357.417 68,348.5C 62.1375,342.491 55.6375,337.324 48.5,333C 37.2457,323.654 30.2457,311.821 27.5,297.5C 29.1992,297.34 30.8659,297.506 32.5,298C 41.4171,304.915 48.9171,313.082 55,322.5C 55.6543,323.696 56.1543,323.696 56.5,322.5C 30.3562,240.816 46.3562,168.649 104.5,106C 141.422,71.4108 185.089,51.5774 235.5,46.5 Z"/></g>
<g><path style="opacity:0.209" fill="#f7f4fb" d="M 72.5,27.5 C 52.4478,38.5522 37.1145,54.2188 26.5,74.5C 29.2733,66.9561 33.1066,59.9561 38,53.5C 47.6964,42.2857 59.1964,33.619 72.5,27.5 Z"/></g>
<g><path style="opacity:1" fill="#8866cc" d="M 230.5,50.5 C 313.501,46.4157 377.668,78.749 423,147.5C 456.563,206.76 460.896,268.093 436,331.5C 434,335.5 432,339.5 430,343.5C 429.907,332.442 429.24,321.442 428,310.5C 427.269,308.101 426.102,305.935 424.5,304C 422.888,303.28 421.388,303.446 420,304.5C 416.156,310.232 414.656,316.566 415.5,323.5C 416.13,334.037 417.13,344.537 418.5,355C 418.528,358.59 418.028,362.09 417,365.5C 411.382,373.453 405.382,381.12 399,388.5C 402.68,375.109 405.513,361.443 407.5,347.5C 407.272,345.603 406.272,344.27 404.5,343.5C 395.474,350.39 389.307,359.39 386,370.5C 383.745,381.716 382.412,393.049 382,404.5C 375.926,409.786 369.759,414.952 363.5,420C 362.833,420.667 362.167,420.667 361.5,420C 370.039,410.084 375.205,398.584 377,385.5C 378.46,374.202 378.793,362.869 378,351.5C 376.933,349.717 375.433,349.217 373.5,350C 365.948,357.897 360.448,367.063 357,377.5C 354.399,394.362 351.899,411.195 349.5,428C 283.982,462.903 218.315,463.237 152.5,429C 151.667,428.167 150.833,427.333 150,426.5C 148.307,413.874 146.973,401.208 146,388.5C 143.255,374.512 137.422,362.012 128.5,351C 126.702,349.495 124.868,349.328 123,350.5C 122.123,363.542 122.456,376.542 124,389.5C 124.871,393.984 126.204,398.317 128,402.5C 131.52,408.613 134.854,414.613 138,420.5C 131.667,415.5 125.333,410.5 119,405.5C 117.779,396.24 116.779,386.906 116,377.5C 113.428,364.854 107.595,354.02 98.5,345C 96.8659,344.506 95.1992,344.34 93.5,344.5C 93.7256,359.754 96.7256,374.421 102.5,388.5C 102.333,388.833 102.167,389.167 102,389.5C 96.429,383.352 91.0956,377.019 86,370.5C 83.3076,366.423 81.8076,361.923 81.5,357C 82.4551,346.439 83.7884,335.939 85.5,325.5C 85.8843,317.596 83.8843,310.429 79.5,304C 77.0185,303.323 75.1851,304.156 74,306.5C 73,310.167 72,313.833 71,317.5C 70.5175,326.859 70.5175,336.192 71,345.5C 46.8301,297.13 41.8301,246.796 56,194.5C 76.7596,133.074 116.926,89.574 176.5,64C 194.161,57.5848 212.161,53.0848 230.5,50.5 Z"/></g>
<g><path style="opacity:0.079" fill="#f8f6fb" d="M 25.5,76.5 C 21.4389,86.0776 18.9389,96.0776 18,106.5C 17.3333,204.833 17.3333,303.167 18,401.5C 20.6953,426.221 30.8619,447.221 48.5,464.5C 43.5635,461.399 39.3969,457.399 36,452.5C 23.9985,436.167 17.3318,417.834 16,397.5C 16.3532,301.581 16.3532,205.581 16,109.5C 16.6887,101.723 18.0221,94.0561 20,86.5C 21.0859,82.6536 22.9193,79.3203 25.5,76.5 Z"/></g>
<g><path style="opacity:0.117" fill="#faf9fd" d="M 474.5,73.5 C 481.072,84.1047 484.406,95.7714 484.5,108.5C 484.167,108.5 483.833,108.5 483.5,108.5C 482.53,96.2845 479.53,84.6178 474.5,73.5 Z"/></g>
<g><path style="opacity:1" fill="#fbfafd" d="M 160.5,101.5 C 221.5,101.5 282.5,101.5 343.5,101.5C 344.068,119.171 344.735,136.838 345.5,154.5C 343.5,154.5 341.5,154.5 339.5,154.5C 339.198,141.041 333.864,130.207 323.5,122C 318.562,119.098 313.229,117.432 307.5,117C 294.171,116.5 280.837,116.333 267.5,116.5C 267.5,138.5 267.5,160.5 267.5,182.5C 257,181.99 246.666,182.99 236.5,185.5C 235.5,162.51 235.167,139.51 235.5,116.5C 220.83,116.333 206.163,116.5 191.5,117C 179.568,120.261 171.401,127.761 167,139.5C 165.364,144.375 164.531,149.375 164.5,154.5C 162.5,154.5 160.5,154.5 158.5,154.5C 159.113,136.831 159.78,119.164 160.5,101.5 Z"/></g>
<g><path style="opacity:0.991" fill="#d8ccee" d="M 483.5,108.5 C 483.833,108.5 484.167,108.5 484.5,108.5C 485.832,206.069 485.832,303.736 484.5,401.5C 484.167,401.5 483.833,401.5 483.5,401.5C 483.5,303.833 483.5,206.167 483.5,108.5 Z"/></g>
<g><path style="opacity:1" fill="#fdfcfe" d="M 338.5,255.5 C 338.5,258.5 338.5,261.5 338.5,264.5C 337.167,264.5 335.833,264.5 334.5,264.5C 320.108,215.971 288.441,198.138 239.5,211C 220.116,219.723 206.949,234.223 200,254.5C 189.722,287.659 190.056,320.659 201,353.5C 214.756,383.061 238.089,397.728 271,397.5C 295.005,397.164 314.338,387.498 329,368.5C 332.531,364.603 335.697,360.436 338.5,356C 340.906,355.221 342.573,356.054 343.5,358.5C 319.435,401.192 283.102,418.026 234.5,409C 198.407,399.576 174.574,377.076 163,341.5C 151.229,299.776 158.895,262.11 186,228.5C 213.776,199.575 247.276,189.409 286.5,198C 296.396,201.282 306.063,205.116 315.5,209.5C 323.332,207.833 327.999,203 329.5,195C 331.167,194.333 332.833,194.333 334.5,195C 336.206,215.088 337.539,235.254 338.5,255.5 Z"/></g>
<g><path style="opacity:1" fill="#fcfcfe" d="M 255.5,218.5 C 259.5,218.5 263.5,218.5 267.5,218.5C 267.041,247.875 267.541,277.209 269,306.5C 270.807,312.307 274.64,316.141 280.5,318C 286.423,319.304 292.423,319.804 298.5,319.5C 298.5,321.5 298.5,323.5 298.5,325.5C 267.833,325.5 237.167,325.5 206.5,325.5C 206.5,323.5 206.5,321.5 206.5,319.5C 213.887,319.714 220.887,318.214 227.5,315C 232.833,310.086 235.333,303.919 235,296.5C 235.333,273.167 235.667,249.833 236,226.5C 242.314,223.084 248.814,220.417 255.5,218.5 Z"/></g>
<g><path style="opacity:1" fill="#cdbee9" d="M 338.5,255.5 C 339.479,258.625 339.813,261.958 339.5,265.5C 337.585,265.784 335.919,265.451 334.5,264.5C 335.833,264.5 337.167,264.5 338.5,264.5C 338.5,261.5 338.5,258.5 338.5,255.5 Z"/></g>
<g><path style="opacity:1" fill="#9070cf" d="M 47.5,319.5 C 43.892,316.476 42.392,317.143 43,321.5C 38.6264,316.413 35.6264,310.746 34,304.5C 39.0998,309.092 43.5998,314.092 47.5,319.5 Z"/></g>
<g><path style="opacity:1" fill="#9576d1" d="M 453.5,318.5 C 457.4,313.092 461.9,308.092 467,303.5C 464.953,310.916 461.287,317.583 456,323.5C 455.833,323.167 455.667,322.833 455.5,322.5C 457.447,320.724 457.78,318.724 456.5,316.5C 455.482,317.193 454.482,317.859 453.5,318.5 Z"/></g>
<g><path style="opacity:1" fill="#9171cf" d="M 77.5,308.5 C 78.5585,309.6 79.3918,310.934 80,312.5C 82.0908,322.901 81.7575,333.234 79,343.5C 78.5006,338.177 78.334,332.844 78.5,327.5C 77.1779,327.33 76.0113,327.663 75,328.5C 73.9656,321.561 74.7989,314.895 77.5,308.5 Z"/></g>
<g><path style="opacity:1" fill="#8d6dce" d="M 425.5,320.5 C 425.802,323.059 425.468,325.393 424.5,327.5C 423.504,327.414 422.671,327.748 422,328.5C 421.667,332.5 421.333,336.5 421,340.5C 419.495,331.887 419.161,323.22 420,314.5C 420.543,312.369 421.376,310.369 422.5,308.5C 424.439,312.254 425.439,316.254 425.5,320.5 Z"/></g>
<g><path style="opacity:1" fill="#b19bdd" d="M 453.5,318.5 C 453.262,320.404 452.262,321.738 450.5,322.5C 450.738,320.596 451.738,319.262 453.5,318.5 Z"/></g>
<g><path style="opacity:1" fill="#b59fdf" d="M 47.5,319.5 C 49.4459,320.254 50.2793,321.588 50,323.5C 48.5187,322.529 47.6854,321.196 47.5,319.5 Z"/></g>
<g><path style="opacity:1" fill="#baa7e2" d="M 450.5,322.5 C 450.539,323.756 450.039,324.756 449,325.5C 448.415,324.002 448.915,323.002 450.5,322.5 Z"/></g>
<g><path style="opacity:1" fill="#c4b3e6" d="M 425.5,320.5 C 426.648,324.981 426.815,329.648 426,334.5C 425.71,332.08 425.21,329.746 424.5,327.5C 425.468,325.393 425.802,323.059 425.5,320.5 Z"/></g>
<g><path style="opacity:1" fill="#8f6fcf" d="M 388.5,387.5 C 388.167,387.5 387.833,387.5 387.5,387.5C 387.903,373.371 392.736,361.038 402,350.5C 401.764,364.885 398.43,378.552 392,391.5C 392.498,386.49 393.498,381.49 395,376.5C 395.814,374.098 395.647,371.765 394.5,369.5C 393.914,369.709 393.414,370.043 393,370.5C 391.028,376.056 389.528,381.722 388.5,387.5 Z"/></g>
<g><path style="opacity:1" fill="#9272d0" d="M 98.5,351.5 C 108.941,363.075 113.775,376.742 113,392.5C 112.081,385.319 110.414,378.319 108,371.5C 107.29,370.027 106.124,369.36 104.5,369.5C 105.693,376.604 107.359,383.604 109.5,390.5C 108.641,391.774 107.974,391.608 107.5,390C 101.509,377.881 98.509,365.048 98.5,351.5 Z"/></g>
<g><path style="opacity:1" fill="#8d6cce" d="M 373.5,355.5 C 376.238,374.49 373.071,392.49 364,409.5C 366.254,397.97 368.088,386.304 369.5,374.5C 368.178,374.33 367.011,374.663 366,375.5C 364.859,389.255 361.859,402.588 357,415.5C 355.971,400.728 357.971,386.394 363,372.5C 365.997,366.503 369.497,360.837 373.5,355.5 Z"/></g>
<g><path style="opacity:1" fill="#8c6cce" d="M 125.5,355.5 C 128.117,357.288 130.284,359.622 132,362.5C 141.044,378.677 144.71,396.01 143,414.5C 139.631,401.586 136.631,388.586 134,375.5C 133.586,375.043 133.086,374.709 132.5,374.5C 132.167,376.333 131.833,378.167 131.5,380C 133.064,389.55 134.564,399.05 136,408.5C 130.68,399.207 127.347,389.207 126,378.5C 125.5,370.841 125.334,363.174 125.5,355.5 Z"/></g>
<g><path style="opacity:1" fill="#9171cf" d="M 57.5,369.5 C 69.2018,372.683 80.2018,377.516 90.5,384C 84.4372,382.704 78.4372,380.871 72.5,378.5C 71.0683,378.733 70.5683,379.4 71,380.5C 78.6146,384.376 86.448,387.876 94.5,391C 81.7918,391.064 70.9584,386.564 62,377.5C 59.8431,375.183 58.3431,372.516 57.5,369.5 Z"/></g>
<g><path style="opacity:1" fill="#8f6fcf" d="M 442.5,368.5 C 443.043,368.56 443.376,368.893 443.5,369.5C 434.84,383.666 422.173,390.832 405.5,391C 413.126,387.736 420.793,384.569 428.5,381.5C 429.386,380.675 429.719,379.675 429.5,378.5C 423.331,379.89 417.331,381.89 411.5,384.5C 410.304,384.154 410.304,383.654 411.5,383C 421.603,377.476 431.936,372.643 442.5,368.5 Z"/></g>
<g><path style="opacity:1" fill="#c4b2e5" d="M 387.5,387.5 C 387.833,387.5 388.167,387.5 388.5,387.5C 386.803,396.6 386.47,396.6 387.5,387.5 Z"/></g>
<g><path style="opacity:1" fill="#906fcf" d="M 82.5,414.5 C 99.1581,413.572 115.491,416.072 131.5,422C 128.833,422.667 126.167,422.667 123.5,422C 115.55,420.179 107.55,418.679 99.5,417.5C 99.1367,419.911 100.137,421.411 102.5,422C 108.362,422.806 114.029,424.139 119.5,426C 110.588,426.375 101.921,425.041 93.5,422C 89.1296,420.451 85.4629,417.951 82.5,414.5 Z"/></g>
<g><path style="opacity:1" fill="#9070cf" d="M 415.5,412.5 C 416.675,412.281 417.675,412.614 418.5,413.5C 410.773,421.029 401.44,425.196 390.5,426C 386.167,426.667 381.833,426.667 377.5,426C 384.462,424.51 391.462,423.177 398.5,422C 400.037,420.89 400.703,419.39 400.5,417.5C 391.038,420.311 381.371,421.477 371.5,421C 377.256,418.484 383.256,416.818 389.5,416C 398.308,414.784 406.974,413.617 415.5,412.5 Z"/></g>
<g><path style="opacity:0.061" fill="#f3eff9" d="M 483.5,401.5 C 483.833,401.5 484.167,401.5 484.5,401.5C 483.798,416.609 479.131,430.276 470.5,442.5C 477.44,429.68 481.773,416.014 483.5,401.5 Z"/></g>
<g><path style="opacity:0.125" fill="#f3f0fa" d="M 470.5,442.5 C 470.25,444.674 469.25,446.341 467.5,447.5C 467.75,445.326 468.75,443.659 470.5,442.5 Z"/></g>
<g><path style="opacity:0.012" fill="#f8f5fb" d="M 467.5,447.5 C 467.573,449.027 466.906,450.027 465.5,450.5C 465.427,448.973 466.094,447.973 467.5,447.5 Z"/></g>
<g><path style="opacity:0.024" fill="#f6f3fb" d="M 464.5,451.5 C 464.573,453.027 463.906,454.027 462.5,454.5C 462.427,452.973 463.094,451.973 464.5,451.5 Z"/></g>
<g><path style="opacity:0.047" fill="#f4f1fa" d="M 462.5,454.5 C 459.167,459.833 454.833,464.167 449.5,467.5C 453.5,462.833 457.833,458.5 462.5,454.5 Z"/></g>
<g><path style="opacity:0.467" fill="#e7e0f5" d="M 50.5,466.5 C 53.0892,467.419 55.0892,469.086 56.5,471.5C 53.9108,470.581 51.9108,468.914 50.5,466.5 Z"/></g>
<g><path style="opacity:0.38" fill="#ebe4f6" d="M 56.5,471.5 C 58.0269,471.427 59.0269,472.094 59.5,473.5C 57.9731,473.573 56.9731,472.906 56.5,471.5 Z"/></g>
<g><path style="opacity:0.008" fill="#f6f3fb" d="M 443.5,472.5 C 443.027,473.906 442.027,474.573 440.5,474.5C 440.973,473.094 441.973,472.427 443.5,472.5 Z"/></g>
<g><path style="opacity:0.314" fill="#e7e0f5" d="M 59.5,473.5 C 61.0269,473.427 62.0269,474.094 62.5,475.5C 60.9731,475.573 59.9731,474.906 59.5,473.5 Z"/></g>
<g><path style="opacity:0.075" fill="#dacfef" d="M 437.5,476.5 C 423.564,486.477 407.898,491.477 390.5,491.5C 296.665,491.833 202.999,491.499 109.5,490.5C 206.167,490.667 302.834,490.5 399.5,490C 412.97,487.567 425.637,483.067 437.5,476.5 Z"/></g>
<g><path style="opacity:0.148" fill="#fdfcfe" d="M 62.5,475.5 C 76.7542,484.695 92.4209,489.695 109.5,490.5C 202.999,491.499 296.665,491.833 390.5,491.5C 296.668,492.666 202.668,492.832 108.5,492C 93.8616,491.258 80.1949,487.258 67.5,480C 65.3825,478.951 63.7158,477.451 62.5,475.5 Z"/></g>
</svg>
