<?xml version="1.0" encoding="UTF-8"?>
<svg version="1.1" xmlns="http://www.w3.org/2000/svg" width="300" height="300">
    <path d="M0 0 C99 0 198 0 300 0 C300 99 300 198 300 300 C201 300 102 300 0 300 C0 201 0 102 0 0 Z " fill="#3C2A6C" transform="translate(0,0)"/>
    <path d="M0 0 C99 0 198 0 300 0 C300 99 300 198 300 300 C201 300 102 300 0 300 C0 201 0 102 0 0 Z M43 43 C43 113.62 43 184.24 43 257 C113.62 257 184.24 257 257 257 C257 186.38 257 115.76 257 43 C186.38 43 115.76 43 43 43 Z " fill="#8665CA" transform="translate(0,0)"/>
    <path d="M0 0 C13.53 0 27.06 0 41 0 C41 4.95 41 9.9 41 15 C37.37 15 33.74 15 30 15 C30 32.16 30 49.32 30 67 C33.63 67 37.26 67 41 67 C41 71.95 41 76.9 41 82 C27.47 82 13.94 82 0 82 C0 77.05 0 72.1 0 67 C3.63 67 7.26 67 11 67 C11 50.17 11 33.34 11 16 C7.37 16 3.74 16 0 16 C0 10.72 0 5.44 0 0 Z " fill="#F5F5F5" transform="translate(68,68)"/>
    <path d="M0 0 C5.94 0 11.88 0 18 0 C18.06803972 7.66755361 18.12296741 15.33499314 18.15543652 23.00277615 C18.17102777 26.56405886 18.19214455 30.12512258 18.22631836 33.6862793 C18.26544385 37.78957099 18.27976317 41.89263614 18.29296875 45.99609375 C18.30845261 47.26206894 18.32393646 48.52804413 18.33988953 49.8323822 C18.34191219 60.54912166 16.63229541 69.11805007 9 77 C1.07317761 83.17720844 -10.34962962 83.14083359 -20 82 C-26.80249316 79.95837204 -31.88004701 75.78604301 -37 71 C-36.48223379 66.89552608 -34.35372556 65.04300477 -31.4375 62.25 C-30.61121094 61.45078125 -29.78492188 60.6515625 -28.93359375 59.828125 C-28.29550781 59.22484375 -27.65742188 58.6215625 -27 58 C-24.45940042 59.19748005 -22.62983477 60.30696629 -20.4375 62.125 C-15.65375771 64.73431398 -11.34393413 64.99363775 -6 64 C-2.99924885 61.28503467 -1.11043407 58.67826987 -0.84178162 54.59555054 C-0.82623734 53.58739288 -0.81069305 52.57923523 -0.79467773 51.54052734 C-0.77473251 50.39949554 -0.75478729 49.25846375 -0.73423767 48.08285522 C-0.71752518 46.84637238 -0.70081268 45.60988953 -0.68359375 44.3359375 C-0.66281265 43.07359283 -0.64203156 41.81124817 -0.62062073 40.51065063 C-0.56622074 37.15367955 -0.51599764 33.79669811 -0.46777344 30.43963623 C-0.41754958 27.01438935 -0.36186814 23.58923171 -0.30664062 20.1640625 C-0.19938137 13.44277714 -0.0981299 6.72142459 0 0 Z " fill="#F9F9F9" transform="translate(159,69)"/>
    <path d="M0 0 C27.06 0 54.12 0 82 0 C82 4.62 82 9.24 82 14 C54.94 14 27.88 14 0 14 C0 9.38 0 4.76 0 0 Z " fill="#F8F8F8" transform="translate(65,220)"/>
</svg>
